<svg width="512" height="512" viewBox="0 0 512 512" xmlns="http://www.w3.org/2000/svg">
  <!-- 背景 -->
  <rect width="512" height="512" fill="#2877b9"/>
  
  <!-- 主圓形背景 -->
  <circle cx="256" cy="256" r="160" fill="#ffffff" opacity="0.95"/>
  
  <!-- LOGO 主體 - 心形設計 -->
  <g transform="translate(256, 256)">
    <!-- 心形路徑 -->
    <path d="M0,20 C-30,-10 -60,0 -60,30 C-60,60 0,90 0,110 C0,90 60,60 60,30 C60,0 30,-10 0,20 Z" 
          fill="#2877b9" 
          transform="scale(1.2)"/>
    
    <!-- 內部高光 -->
    <path d="M0,20 C-30,-10 -60,0 -60,30 C-60,60 0,90 0,110 C0,90 60,60 60,30 C60,0 30,-10 0,20 Z" 
          fill="#56c596" 
          opacity="0.3"
          transform="scale(0.8)"/>
  </g>
  
  <!-- 品牌文字 -->
  <text x="256" y="340" 
        font-family="Arial, sans-serif" 
        font-size="30" 
        font-weight="bold" 
        text-anchor="middle" 
        fill="#ffffff">LalaLand</text>
        
  <!-- 副標題 -->
  <text x="256" y="370" 
        font-family="Arial, sans-serif" 
        font-size="16" 
        text-anchor="middle" 
        fill="#ffffff" 
        opacity="0.9">女同聊天室</text>
</svg>