<svg width="1024" height="1024" viewBox="0 0 1024 1024" xmlns="http://www.w3.org/2000/svg">
  <!-- 背景 -->
  <rect width="1024" height="1024" fill="#2877b9"/>
  
  <!-- 主圓形背景 -->
  <circle cx="512" cy="512" r="320" fill="#ffffff" opacity="0.95"/>
  
  <!-- LOGO 主體 - 心形設計 -->
  <g transform="translate(512, 512)">
    <!-- 心形路徑 -->
    <path d="M0,40 C-60,-20 -120,0 -120,60 C-120,120 0,180 0,220 C0,180 120,120 120,60 C120,0 60,-20 0,40 Z" 
          fill="#2877b9" 
          transform="scale(1.2)"/>
    
    <!-- 內部高光 -->
    <path d="M0,40 C-60,-20 -120,0 -120,60 C-120,120 0,180 0,220 C0,180 120,120 120,60 C120,0 60,-20 0,40 Z" 
          fill="#56c596" 
          opacity="0.3"
          transform="scale(0.8)"/>
  </g>
  
  <!-- 品牌文字 -->
  <text x="512" y="680" 
        font-family="Arial, sans-serif" 
        font-size="60" 
        font-weight="bold" 
        text-anchor="middle" 
        fill="#ffffff">LalaLand</text>
        
  <!-- 副標題 -->
  <text x="512" y="740" 
        font-family="Arial, sans-serif" 
        font-size="32" 
        text-anchor="middle" 
        fill="#ffffff" 
        opacity="0.9">女同聊天室</text>
</svg>